<svg width="44" height="44" viewBox="0 0 44 44" fill="none" xmlns="http://www.w3.org/2000/svg">
<path d="M36.8317 6.51109C36.467 5.99766 35.4935 5.29839 34.6164 4.73886C34.1 4.40941 33.4446 4.79016 33.4446 5.40273C33.4446 5.81728 33.7341 6.26938 34.0181 6.57134C34.6651 7.25906 35.5905 8.59361 36.0907 9.36305C36.6835 10.0949 37.1845 11.6769 37.3609 12.3764L37.996 16.0356C38.0488 16.5729 38.3571 16.5903 38.4135 16.0532C38.4998 15.2321 38.577 14.2713 38.6237 13.6108C38.6287 13.541 38.6391 13.4725 38.6421 13.4026C38.668 12.7898 38.336 10.5022 38.1547 9.36305C37.8901 8.44827 37.5197 7.47968 36.8317 6.51109Z" fill="#1F41BB"/>
<path d="M15.0273 35.6764C8.72304 34.4164 4.89889 29.5452 2.78301 24.8286C1.73508 22.4926 -0.141307 22.5226 0.0500088 25.0757C0.0923474 27.4004 2.85494 33.7393 5.71279 36.645C10.2642 40.1965 16.9325 43.5328 20.6901 43.9633C28.057 44.4368 34.309 40.2145 36.5141 38.0441C38.3163 36.5781 40.1697 33.1101 41.1925 30.8608C41.5082 30.1666 41.8596 29.4882 42.1504 28.7833C43.6685 25.1032 44.0083 18.4608 43.9763 15.336C44.315 11.2464 40.942 5.30931 39.2132 2.85196C38.2952 1.61746 37.082 0.819954 36.1641 0.378425C35.5473 0.0817577 34.7157 0.0914077 34.7761 0.773165C34.8457 1.55903 35.6057 2.151 36.1495 2.7226C37.6624 4.31274 38.7873 7.56829 39.2132 9.25543C40.06 12.0966 39.4249 15.9997 39.0015 17.5961C38.848 17.9634 38.6709 18.2621 38.482 18.5038C37.5546 19.691 35.6058 19.2647 35.4088 17.7711C35.3243 17.1303 35.4182 16.4153 35.4977 15.7738C35.8982 12.5405 34.9986 11.3356 34.4501 11.1388C33.8966 11.0137 33.3096 12.2626 32.908 13.4297C32.6351 14.2232 32.3431 15.0169 32.1817 15.8404C31.5264 19.1847 32.9616 24.133 33.8679 26.421C34.9264 28.4443 33.4269 31.2102 32.5449 32.3402C28.9037 36.7311 19.3493 36.3939 15.0273 35.6764Z" fill="#1F41BB"/>
<path d="M24.1612 28.7061C19.758 30.7294 18.7278 33.2441 18.763 34.2486L17.0166 30.5895C16.2545 27.2317 17.9692 23.4865 18.9218 22.0336C21.5045 18.3314 22.6441 18.8408 22.8911 19.5583C23.2298 20.161 21.9384 22.0695 21.2504 22.9484C20.2343 25.23 22.4147 25.0111 23.632 24.6165C25.2832 24.3152 27.1073 21.1188 27.8129 19.5583L27.3895 15.3073C27.7706 13.7145 28.889 13.5315 29.4006 13.6391C30.2897 15.9207 29.7711 20.3296 29.4006 22.2488C28.889 23.3789 27.1249 26.2524 24.1612 28.7061Z" fill="#47B5FF"/>
<path d="M10.8638 9.54478C20.771 1.79605 29.0279 6.9552 32.0975 11.1704C6.24824 8.43526 11.1199 24.8483 16.8877 33.5805C0.0203156 23.9576 5.96332 13.9918 10.8638 9.54478Z" fill="#47B5FF"/>
<path d="M25.5029 20.599C24.7317 21.6597 23.6591 22.6847 23.0717 23.1803C23.4542 22.8277 23.753 22.3983 23.9843 21.942C24.9595 20.0188 23.8057 17.7321 24.0772 15.593C24.2621 14.1358 26.1492 15.2563 26.3146 16.7158C26.3568 17.0882 26.3719 17.4629 26.3689 17.8165C26.3607 18.8113 26.088 19.7944 25.5029 20.599Z" fill="#47B5FF"/>
</svg>
